<svg viewBox="0 0 780 2600" xmlns="http://www.w3.org/2000/svg"><path fill="rgba(14,14,14,1)" d="M0 0h780v2600H0z"/><rect x="410" y="1694" width="4.9" height="6.9" fill="#5c5c5c" rx="0" transform="matrix(.01582 .97974 -1.02434 -.22619 2389.335 1720.654)"/><rect x="760" y="2316" width="5.9" height="10.9" fill="#51edf9" rx="0" transform="matrix(.80175 .78133 -.58291 .6792 1416.246 353.03)"/><rect x="237" y="491" width="3.9" height="7.9" fill="#51edf9" rx="0" transform="matrix(.7933 .86721 -.6951 .50069 538.945 52.437)"/><rect x="744" y="1223" width="3.9" height="6.9" fill="#adff2f" rx="0" transform="matrix(.98784 .77456 -.43234 .67332 862.22 -4.907)"/><rect x="435" y="85" width="5.9" height="8.9" fill="#adff2f" rx="0" transform="matrix(-.59367 .49564 -.94659 -.89416 841.93 45.456)"/><rect x="558" y="164" width="6.9" height="18.9" fill="#5c5c5c" rx="0" transform="matrix(.17971 .91266 -1.00805 .44513 627.57 -515.17)"/><rect x="711" y="1005" width="6.9" height="16.9" fill="#5c5c5c" rx="0" transform="matrix(.8458 .6508 -.52858 .7756 626.183 -124.381)"/><rect x="572" y="837" width="6.9" height="10.9" fill="#f551ff" rx="0" transform="matrix(-.73135 .81096 -.682 -.6111 1570.857 789.138)"/><rect x="519" y="1643" width="6.9" height="11.9" fill="#adff2f" rx="0" transform="matrix(.5047 1.00874 -.87482 .23289 1763.768 877.905)"/><rect x="568" y="1851" width="3.9" height="4.9" fill="#ff3f35" rx="0" transform="matrix(.93726 .7862 -.4855 .6597 1285.609 314.229)"/><rect x="534" y="1113" width="4.9" height="4.9" fill="#f551ff" rx="0" transform="matrix(.61527 .84756 -.76485 .57169 908.581 137.116)"/><rect x="547" y="568" width="3.9" height="9.9" fill="#ff3f35" rx="0" transform="matrix(1.00485 .01745 .26925 .99985 7.36 -9.493)"/><rect x="639" y="1273" width="5.9" height="8.9" fill="#51edf9" rx="0" transform="matrix(.86785 .90267 -.64638 .47996 1263.073 221.305)"/><rect x="156" y="933" width="6.9" height="7.9" fill="#51edf9" rx="0" transform="matrix(-.19357 1.00183 -1.00493 .03498 985.254 733.28)"/><rect x="508" y="739" width="5.9" height="5.9" fill="#adff2f" rx="0" transform="matrix(.80134 .89658 -.6527 .51764 678.148 36.692)"/><rect x="431" y="1840" width="5.9" height="9.9" fill="#5c5c5c" rx="0" transform="matrix(.28635 1.01364 -1.05266 -.23402 2706.454 1961.264)"/><rect x="107" y="1455" width="4.9" height="5.9" fill="#adff2f" rx="0" transform="matrix(.95571 .29255 -.29223 .95689 379.864 34.658)"/><rect x="670" y="2222" width="4.9" height="5.9" fill="#51edf9" rx="0" transform="matrix(-.15552 .97767 -.9753 -.2989 2781.43 2375.495)"/><rect x="404" y="1028" width="3.9" height="10.9" fill="#5c5c5c" rx="0" transform="matrix(-.65675 .56227 -.80482 -.8336 1713.479 1709.35)"/><rect x="340" y="169" width="6.9" height="11.9" fill="#ff3f35" rx="0" transform="matrix(-.48415 .7283 -.9055 -.70332 696.31 102.256)"/><rect x="460" y="1121" width="5.9" height="15.9" fill="#f551ff" rx="0" transform="matrix(-1.0118 .32636 -.12561 -.94783 919.054 2015.537)"/><rect x="571" y="364" width="4.9" height="9.9" fill="#adff2f" rx="0" transform="matrix(-.99467 -.27064 -.01727 -1.01006 1140.713 1072.134)"/><rect x="747" y="893" width="6.9" height="16.9" fill="#ff3f35" rx="0" transform="matrix(-.0733 .87971 -1.0927 -.52859 2078.429 891.017)"/><rect x="244" y="2354" width="4.9" height="4.9" fill="#f551ff" rx="0" transform="matrix(.81484 .6821 -.59225 .73147 1689.367 468.987)"/><rect x="248" y="2415" width="4.9" height="5.9" fill="#5c5c5c" rx="0" transform="matrix(.97835 -.17633 .12278 1 0 0)"/><rect x="522" y="1264" width="6.9" height="15.9" fill="#ff3f35" rx="0" transform="matrix(-.05272 1.00356 -.9862 -.19507 1710.806 1104.44)"/><rect x="552" y="1503" width="5.9" height="12.9" fill="#51edf9" rx="0" transform="matrix(-.00823 .93874 -1.06193 -.37928 2531.226 1648.89)"/><rect x="252" y="1201" width="3.9" height="4.9" fill="#5c5c5c" rx="0" transform="matrix(-.55612 .8151 -.8228 -.5922 1277.37 1740.32)"/><rect x="725" y="1167" width="5.9" height="11.9" fill="#ff3f35" rx="0" transform="matrix(.54744 .77762 -.84267 .6297 1237.607 -157.15)"/><rect x="11" y="2526" width="3.9" height="10.9" fill="#51edf9" rx="0" transform="matrix(.95216 .47671 -.30695 .89657 1648.505 253.375)"/><rect x="334" y="2412" width="6.9" height="8.9" fill="#5c5c5c" rx="0" transform="matrix(-.36398 .9854 -.95063 -.17375 2376.56 2492.008)"/><rect x="107" y="2078" width="3.9" height="7.9" fill="#adff2f" rx="0" transform="matrix(-.18482 .93872 -.99433 -.36034 2792.943 2718.439)"/><rect x="674" y="1651" width="3.9" height="9.9" fill="#51edf9" rx="0" transform="matrix(-.93165 .03691 -.41376 -1.05698 2089.847 3614.049)"/><rect x="630" y="1699" width="4.9" height="6.9" fill="#f551ff" rx="0" transform="matrix(-.71323 .5163 -.74986 -.85926 2931.101 2794.541)"/><rect x="43" y="2117" width="4.9" height="8.9" fill="#adff2f" rx="0" transform="matrix(.6449 .8253 -.76011 .57788 2078.427 852.408)"/><rect x="667" y="189" width="5.9" height="5.9" fill="#f551ff" rx="0" transform="matrix(-.86489 .42423 -.50244 -.90977 1369.336 23.753)"/><rect x="550" y="1942" width="6.9" height="11.9" fill="#51edf9" rx="0" transform="matrix(-.93814 .13951 -.49256 -.99269 2601.81 3843.14)"/><rect x="748" y="2447" width="4.9" height="8.9" fill="#51edf9" rx="0" transform="matrix(1.0668 .26795 .24933 1 0 0)"/><rect x="272" y="752" width="4.9" height="13.9" fill="#5c5c5c" rx="0" transform="matrix(1.05301 .49085 -.13758 .88552 275.12 -4.363)"/><rect x="184" y="2282" width="5.9" height="14.9" fill="#ff3f35" rx="0" transform="matrix(.97147 .53194 -.32521 .85129 1488.47 224.667)"/><rect x="234" y="2193" width="4.9" height="4.9" fill="#ff3f35" rx="0" transform="matrix(-.99498 .06977 -.10457 -.99772 739.686 4373.516)"/><rect x="577" y="2261" width="4.9" height="13.9" fill="#5c5c5c" rx="0" transform="matrix(-.89044 .45427 -.45375 -.89155 2202.996 4006.48)"/><rect x="53" y="1509" width="4.9" height="11.9" fill="#5c5c5c" rx="0" transform="matrix(-.92908 .0719 -.62334 -1.0281 1518.69 3082.314)"/><rect x="748" y="2174" width="3.9" height="4.9" fill="#f551ff" rx="0" transform="matrix(.9933 .12204 -.10446 .9939 155.009 -38.96)"/><rect x="449" y="1571" width="5.9" height="9.9" fill="#5c5c5c" rx="0" transform="matrix(1.04225 .17495 .19505 .9922 80.283 -11.29)"/><rect x="526" y="1702" width="6.9" height="7.9" fill="#f551ff" rx="0" transform="matrix(-.66286 .63279 -.76175 -.78143 2303.09 2759.643)"/><rect x="102" y="387" width="3.9" height="7.9" fill="#51edf9" rx="0" transform="matrix(.08434 .9657 -1.0613 -.29525 611.216 420.6)"/><rect x="751" y="1185" width="3.9" height="4.9" fill="#51edf9" rx="0" transform="matrix(.06974 .99772 -.99741 .06977 1863.86 366.518)"/><rect x="705" y="2383" width="4.9" height="12.9" fill="#5c5c5c" rx="0" transform="matrix(.58814 .82904 -.80951 .5592 2309.093 466.784)"/><rect x="452" y="1894" width="4.9" height="12.9" fill="#5c5c5c" rx="0" transform="matrix(-.87872 .47532 -.4512 -.89395 1968.25 3311.376)"/><rect x="672" y="1062" width="3.9" height="8.9" fill="#adff2f" rx="0" transform="matrix(-.1596 .96291 -.98666 -.31287 2127.147 644.412)"/><rect x="205" y="1488" width="6.9" height="8.9" fill="#adff2f" rx="0" transform="matrix(-.28985 .91444 -.94588 -.46593 1599.805 2045.34)"/><rect x="173" y="1092" width="6.9" height="10.9" fill="#f551ff" rx="0" transform="matrix(-.24037 .9922 -.96547 -.17495 1334.802 1092.712)"/><rect x="233" y="1456" width="4.9" height="12.9" fill="#5c5c5c" rx="0" transform="matrix(.81194 .88958 -.69241 .473 1456.507 590.174)"/><rect x="369" y="1289" width="6.9" height="10.9" fill="#5c5c5c" rx="0" transform="matrix(.29788 1.01872 -.98163 0 1675.833 987.426)"/><rect x="487" y="1627" width="5.9" height="12.9" fill="#51edf9" rx="0" transform="matrix(.7675 .50122 -.66579 .86814 1005.09 -64.447)"/><rect x="552" y="695" width="6.9" height="11.9" fill="#adff2f" rx="0" transform="matrix(.12621 1.00382 -.9962 0 1322.29 94.783)"/><rect x="170" y="56" width="3.9" height="5.9" fill="#51edf9" rx="0" transform="matrix(.08713 .99386 -1.02311 -.19319 227.862 -73.322)"/><rect x="337" y="1709" width="3.9" height="10.9" fill="#f551ff" rx="0" transform="matrix(.99128 .12254 -.08724 .99801 30.148 -2.504)"/><rect x="342" y="607" width="4.9" height="6.9" fill="#ff3f35" rx="0" transform="matrix(-.93907 .19107 -.40256 -.98297 1072.388 1126.64)"/><rect x="99" y="2448" width="6.9" height="6.9" fill="#ff3f35" rx="0" transform="matrix(-.54539 .80902 -.83982 -.58779 2345.58 3809.492)"/><rect x="65" y="2248" width="5.9" height="12.9" fill="#f551ff" rx="0" transform="matrix(-.9585 .22499 -.293 -.97452 911.834 4437.352)"/><rect x="26" y="381" width="4.9" height="9.9" fill="#adff2f" rx="0" transform="matrix(-.01535 .97564 -1.0288 .24325 365.296 261.319)"/><rect x="232" y="1248" width="6.9" height="10.9" fill="#f551ff" rx="0" transform="matrix(-.74841 .57366 -.67433 -.81928 1432.492 2141.194)"/><rect x="517" y="439" width="5.9" height="10.9" fill="#5c5c5c" rx="0" transform="matrix(.64683 .83526 -.76094 .5634 609.702 -304.087)"/><rect x="316" y="72" width="5.9" height="8.9" fill="#ff3f35" rx="0" transform="matrix(-.5302 .74785 -.80697 -.74785 526.877 4.92)"/><rect x="210" y="2473" width="5.9" height="10.9" fill="#51edf9" rx="0" transform="matrix(-.47032 .86113 -.86737 -.5381 3026.374 3591.163)"/><rect x="435" y="881" width="5.9" height="7.9" fill="#adff2f" rx="0" transform="matrix(.81675 .83718 -.64358 .56469 816.68 80.134)"/><rect x="410" y="1331" width="4.9" height="4.9" fill="#f551ff" rx="0" transform="matrix(.91352 .26076 -.4256 .97318 535.968 -122.43)"/><rect x="733" y="1126" width="6.9" height="11.9" fill="#5c5c5c" rx="0" transform="matrix(-.78031 .23653 -.84792 -1.02451 2716.46 2356.744)"/><rect x="642" y="963" width="5.9" height="16.9" fill="#51edf9" rx="0" transform="matrix(-1.00553 -.07014 -.12266 -1.00306 1503.54 2058.896)"/><rect x="747" y="1311" width="5.9" height="10.9" fill="#f551ff" rx="0" transform="matrix(-.27595 .83179 -1.009 -.58242 2540.647 1591.62)"/><rect x="164" y="2272" width="4.9" height="10.9" fill="#5c5c5c" rx="0" transform="matrix(.7633 .70288 -.6042 .75374 1048.128 485.345)"/><rect x="143" y="632" width="5.9" height="16.9" fill="#ff3f35" rx="0" transform="matrix(.91246 .89416 -.61259 .49564 597.65 223.537)"/><rect x="497" y="2346" width="4.9" height="8.9" fill="#5c5c5c" rx="0" transform="matrix(1.05789 .34538 .01117 .94893 503.695 17.736)"/><rect x="750" y="2169" width="6.9" height="10.9" fill="#adff2f" rx="0" transform="matrix(-.41327 .9347 -.89443 -.39676 3296.656 2200.075)"/><rect x="323" y="2472" width="3.9" height="4.9" fill="#5c5c5c" rx="0" transform="matrix(1.02291 .46413 -.14697 .91091 668.537 138.694)"/><rect x="49" y="1142" width="4.9" height="4.9" fill="#5c5c5c" rx="0" transform="matrix(-.31949 .96823 -.93514 -.29602 1277.63 1425.262)"/><rect x="165" y="409" width="6.9" height="15.9" fill="#5c5c5c" rx="0" transform="matrix(-.9718 -.07257 -.11712 -1.03777 340.278 910.173)"/><rect x="467" y="2064" width="3.9" height="9.9" fill="#f551ff" rx="0" transform="matrix(-.6966 .76635 -.69934 -.66618 2451.281 3005.173)"/><rect x="186" y="1001" width="5.9" height="9.9" fill="#5c5c5c" rx="0" transform="matrix(-.20674 .8656 -1.03106 -.5201 1484.67 1392.146)"/><rect x="681" y="209" width="4.9" height="6.9" fill="#5c5c5c" rx="0" transform="matrix(.14132 .95106 -1.00554 .30902 763.032 -503.2)"/><rect x="282" y="1879" width="6.9" height="12.9" fill="#f551ff" rx="0" transform="matrix(.63677 .86616 -.78689 .50008 1853.002 700.32)"/><rect x="229" y="1507" width="3.9" height="8.9" fill="#f551ff" rx="0" transform="matrix(-1.00906 .2758 -.10674 -.96185 414.042 2893.472)"/><rect x="132" y="322" width="4.9" height="8.9" fill="#ff3f35" rx="0" transform="matrix(.73511 .93415 -.77349 .37742 380.015 94.154)"/><rect x="50" y="1597" width="6.9" height="13.9" fill="#ff3f35" rx="0" transform="matrix(-.93146 .12744 -.26087 -1.0379 293.941 3278.215)"/><rect x="714" y="1561" width="4.9" height="4.9" fill="#f551ff" rx="0" transform="matrix(-.05308 .98169 -1.0064 -.22664 2414.482 1302.43)"/><rect x="728" y="2511" width="4.9" height="11.9" fill="#5c5c5c" rx="0" transform="matrix(-.98443 .01772 -.03 -1.01527 1106.007 5188.192)"/><rect x="58" y="534" width="5.9" height="9.9" fill="#51edf9" rx="0" transform="matrix(.3945 .97163 -.93084 .24225 595.565 352.36)"/><rect x="644" y="2326" width="6.9" height="16.9" fill="#adff2f" rx="0" transform="matrix(.17949 1.00413 -.98648 .05262 3357.37 1493.427)"/><rect x="260" y="366" width="6.9" height="6.9" fill="#adff2f" rx="0" transform="matrix(-.80728 .79102 -.63347 -.61801 655.3 366.332)"/><rect x="347" y="500" width="6.9" height="16.9" fill="#51edf9" rx="0" transform="matrix(.97774 .14054 -.15838 1 0 0)"/><rect x="744" y="1280" width="3.9" height="5.9" fill="#51edf9" rx="0" transform="matrix(1.01703 .24196 -.05384 .97044 284.877 -129.549)"/><rect x="461" y="596" width="5.9" height="9.9" fill="#adff2f" rx="0" transform="matrix(-.4055 .80303 -.93972 -.60513 1406.934 543.272)"/><rect x="462" y="701" width="3.9" height="7.9" fill="#adff2f" rx="0" transform="matrix(-.7648 .52285 -.58792 -.9056 1099.12 1242.619)"/><rect x="90" y="123" width="6.9" height="8.9" fill="#f551ff" rx="0" transform="matrix(.37468 .98017 -.89849 .31848 149.073 18.563)"/><rect x="718" y="1441" width="3.9" height="5.9" fill="#f551ff" rx="0" transform="matrix(-.73108 .41435 -.7714 -.93064 2696.808 2629.387)"/><rect x="278" y="1500" width="3.9" height="5.9" fill="#5c5c5c" rx="0" transform="matrix(.25353 1.00046 -1.00397 -.01746 2174.397 1239.342)"/><rect x="567" y="1809" width="5.9" height="13.9" fill="#adff2f" rx="0" transform="matrix(-.50666 .83378 -.83124 -.60578 2058.085 2582.905)"/><rect x="522" y="357" width="5.9" height="13.9" fill="#adff2f" rx="0" transform="matrix(1.05062 .49092 -.06105 .9233 69.35 -69.298)"/><rect x="687" y="1873" width="6.9" height="6.9" fill="#51edf9" rx="0" transform="matrix(-.94162 .09114 -.20962 -1.04171 1403.29 3979.337)"/><rect x="354" y="1078" width="5.9" height="11.9" fill="#5c5c5c" rx="0" transform="matrix(.7463 .75045 -.66057 .6757 1064.329 33.48)"/><rect x="613" y="418" width="3.9" height="7.9" fill="#ff3f35" rx="0" transform="matrix(.87462 .62334 -.48481 .79783 281.668 -200.618)"/><rect x="585" y="1781" width="5.9" height="14.9" fill="#51edf9" rx="0" transform="matrix(-.8797 .2443 -.56507 -.97983 2479.462 3479.825)"/><rect x="578" y="1899" width="5.9" height="5.9" fill="#adff2f" rx="0" transform="matrix(.61713 .9323 -.82329 .37667 2099.192 704.988)"/><rect x="134" y="627" width="5.9" height="7.9" fill="#f551ff" rx="0" transform="matrix(1.0398 .22916 .14012 .9926 22.086 -.099)"/><rect x="239" y="1916" width="3.9" height="6.9" fill="#ff3f35" rx="0" transform="matrix(-.68588 .82228 -.73587 -.57577 1719.189 2805.398)"/><rect x="108" y="1773" width="3.9" height="7.9" fill="#adff2f" rx="0" transform="matrix(-.5708 .64318 -.87452 -.76651 2203.844 3072.124)"/><rect x="44" y="2043" width="5.9" height="14.9" fill="#adff2f" rx="0" transform="matrix(-.99466 .0175 -.17484 -1.00229 631.838 4108.056)"/><rect x="329" y="923" width="5.9" height="14.9" fill="#ff3f35" rx="0" transform="matrix(.40869 .86616 -.91857 .50008 936.012 183.427)"/><rect x="367" y="1677" width="3.9" height="8.9" fill="#f551ff" rx="0" transform="matrix(-.96705 .1397 -.27705 -.99405 1281.396 3333.631)"/><rect x="605" y="429" width="6.9" height="7.9" fill="#5c5c5c" rx="0" transform="matrix(-.96295 -.23653 .05683 -1.02451 1081.122 1218.126)"/><rect x="687" y="1925" width="3.9" height="5.9" fill="#ff3f35" rx="0" transform="matrix(.07307 .95762 -1.02192 .29277 2275.236 667.642)"/><rect x="205" y="1913" width="4.9" height="11.9" fill="#adff2f" rx="0" transform="matrix(.36398 .9854 -.95063 .17375 2261.227 1388.346)"/><rect x="388" y="814" width="3.9" height="4.9" fill="#adff2f" rx="0" transform="matrix(-.93487 .03691 -.32146 -1.05698 983.756 1799.296)"/><rect x="487" y="1779" width="6.9" height="12.9" fill="#5c5c5c" rx="0" transform="matrix(.9362 .36637 -.29057 .95444 284.514 5.91)"/><rect x="545" y="1263" width="5.9" height="9.9" fill="#51edf9" rx="0" transform="matrix(.45501 .94472 -.86538 .401 1199.9 368.337)"/><rect x="31" y="2432" width="4.9" height="11.9" fill="#adff2f" rx="0" transform="matrix(-.2251 .98178 -.9748 -.19084 2289.71 2870.947)"/><rect x="550" y="640" width="3.9" height="8.9" fill="#51edf9" rx="0" transform="matrix(.73854 .93073 -.77604 .37604 856.223 -63.312)"/><rect x="102" y="2200" width="6.9" height="6.9" fill="#5c5c5c" rx="0" transform="matrix(-.50526 .70606 -.87449 -.75715 2163.554 3825.6)"/><rect x="277" y="1387" width="4.9" height="5.9" fill="#adff2f" rx="0" transform="matrix(.41532 .8121 -.92961 .59003 1287.842 318.445)"/><rect x="265" y="96" width="4.9" height="8.9" fill="#f551ff" rx="0" transform="matrix(-.39968 1.0023 -.94863 -.12307 460.8 -192.84)"/><rect x="371" y="516" width="5.9" height="6.9" fill="#51edf9" rx="0" transform="matrix(.3413 .97758 -.93783 .24374 723.61 73.188)"/><rect x="727" y="662" width="5.9" height="10.9" fill="#ff3f35" rx="0" transform="matrix(.55043 .974 -.88945 .24285 1090.663 -141.748)"/><rect x="589" y="1772" width="4.9" height="4.9" fill="#51edf9" rx="0" transform="matrix(-.33466 .77786 -1.00476 -.6527 2971.623 2576.862)"/><rect x="198" y="1595" width="3.9" height="3.9" fill="#51edf9" rx="0" transform="matrix(-.05867 .87039 -1.11366 -.52298 2552.15 2293.35)"/><rect x="76" y="1324" width="3.9" height="4.9" fill="#adff2f" rx="0" transform="matrix(-1.01654 .15665 .03447 -.98904 -74.383 2622.071)"/><rect x="603" y="2196" width="6.9" height="8.9" fill="#5c5c5c" rx="0" transform="matrix(-.59798 .94798 -.82533 -.3639 2602.032 2319.348)"/><rect x="164" y="2137" width="3.9" height="6.9" fill="#5c5c5c" rx="0" transform="matrix(-.10515 .9576 -.99964 -.40648 2361.275 2899.166)"/><rect x="331" y="2454" width="5.9" height="10.9" fill="#5c5c5c" rx="0" transform="matrix(-.94657 .13926 -.44571 -.99087 2589.107 4838.282)"/><rect x="17" y="96" width="3.9" height="5.9" fill="#f551ff" rx="0" transform="matrix(.98769 0 -.26285 1.01247 16.158 -4.235)"/><rect x="607" y="1773" width="3.9" height="7.9" fill="#f551ff" rx="0" transform="matrix(1.11188 .32492 .34433 1 0 0)"/><rect x="655" y="1645" width="5.9" height="8.9" fill="#51edf9" rx="0" transform="matrix(-.45358 .8121 -.90182 -.59003 2840.792 2030.787)"/><rect x="134" y="2157" width="4.9" height="7.9" fill="#ff3f35" rx="0" transform="matrix(-.61227 .52015 -.86203 -.90093 2431.262 4075.957)"/><rect x="303" y="2036" width="6.9" height="18.9" fill="#adff2f" rx="0" transform="matrix(-.5786 .6961 -.79399 -.7731 1958.647 3501.328)"/><rect x="565" y="1444" width="3.9" height="10.9" fill="#51edf9" rx="0" transform="matrix(-.28141 .81013 -1.02992 -.5886 2699.917 1872.995)"/><rect x="699" y="414" width="3.9" height="4.9" fill="#f551ff" rx="0" transform="matrix(.92107 .37928 -.35688 .93874 129.821 -129.323)"/><rect x="361" y="1569" width="5.9" height="10.9" fill="#51edf9" rx="0" transform="matrix(-.56163 .74047 -.82677 -.6905 2333.793 2334.469)"/><rect x="192" y="1480" width="3.9" height="3.9" fill="#51edf9" rx="0" transform="matrix(.69878 .84912 -.72389 .55143 1184.011 530.792)"/><rect x="296" y="1412" width="6.9" height="8.9" fill="#51edf9" rx="0" transform="matrix(.77332 .67747 -.61722 .7524 1233.13 100.404)"/><rect x="273" y="2140" width="5.9" height="10.9" fill="#51edf9" rx="0" transform="matrix(1.06483 .56131 -.14185 .86435 757.087 204.948)"/><rect x="394" y="2508" width="5.9" height="5.9" fill="#5c5c5c" rx="0" transform="matrix(1.00737 -.0524 -.14054 1 0 0)"/><rect x="283" y="1900" width="5.9" height="6.9" fill="#51edf9" rx="0" transform="matrix(.98478 .19154 -.15465 .98538 529.36 -51.953)"/><rect x="731" y="1002" width="3.9" height="6.9" fill="#adff2f" rx="0" transform="matrix(-.9758 .06985 -.36141 -.99893 2144.52 1920.217)"/><rect x="26" y="1930" width="3.9" height="6.9" fill="#f551ff" rx="0" transform="matrix(.91213 .64367 -.46656 .7671 1245.695 433.783)"/><rect x="216" y="2470" width="6.9" height="12.9" fill="#ff3f35" rx="0" transform="matrix(.67608 .82308 -.70548 .62024 1507.372 814.549)"/><rect x="349" y="917" width="3.9" height="7.9" fill="#51edf9" rx="0" transform="matrix(.95058 .7071 -.46363 .7071 761.432 21.58)"/><rect x="86" y="25" width="3.9" height="6.9" fill="#5c5c5c" rx="0" transform="matrix(-.90574 .42288 -.4224 -.90686 180.513 13.987)"/><rect x="96" y="2092" width="5.9" height="13.9" fill="#adff2f" rx="0" transform="matrix(.58898 1.0249 -.94484 .05371 2672.54 1907.64)"/><rect x="358" y="2456" width="5.9" height="13.9" fill="#5c5c5c" rx="0" transform="matrix(-.7383 .401 -.75436 -.94472 2934.383 4728.33)"/><rect x="72" y="2008" width="3.9" height="10.9" fill="#51edf9" rx="0" transform="matrix(-.51914 .58173 -.94936 -.86245 2456.315 3728.13)"/><rect x="335" y="151" width="5.9" height="5.9" fill="#51edf9" rx="0" transform="matrix(.19438 1 -.97268 .14054 442.696 -253.132)"/><rect x="657" y="1537" width="5.9" height="10.9" fill="#ff3f35" rx="0" transform="matrix(-.76163 .3962 -.63894 -.9806 2117.231 3020.762)"/><rect x="461" y="329" width="4.9" height="10.9" fill="#51edf9" rx="0" transform="matrix(-.54533 .79912 -.84044 -.60218 1030.718 149.312)"/><rect x="223" y="632" width="6.9" height="12.9" fill="#51edf9" rx="0" transform="matrix(.32492 1 -1.06316 -.19438 1053.392 580.12)"/><rect x="302" y="10" width="4.9" height="4.9" fill="#f551ff" rx="0" transform="matrix(-.7747 .65967 -.6247 -.75887 541.84 -146.94)"/><rect x="457" y="1847" width="5.9" height="13.9" fill="#f551ff" rx="0" transform="matrix(.00053 .98784 -1.0124 -.15646 2662.12 1681.63)"/><rect x="629" y="2329" width="4.9" height="12.9" fill="#f551ff" rx="0" transform="matrix(.40829 .87462 -.91704 .48481 2311 650.923)"/><rect x="289" y="517" width="4.9" height="10.9" fill="#adff2f" rx="0" transform="matrix(.73272 .74873 -.67586 .67416 534.442 -83.764)"/><rect x="396" y="2220" width="6.9" height="8.9" fill="#ff3f35" rx="0" transform="matrix(-.55605 .97106 -.8598 -.29688 2307.758 2426.527)"/><rect x="684" y="2525" width="3.9" height="3.9" fill="#51edf9" rx="0" transform="matrix(.9312 .14132 -.45034 1.00554 847.035 -231.9)"/><rect x="758" y="619" width="4.9" height="9.9" fill="#adff2f" rx="0" transform="matrix(-.66273 .60932 -.76172 -.8086 1778.704 785.559)"/><rect x="495" y="1419" width="6.9" height="13.9" fill="#adff2f" rx="0" transform="matrix(.78426 .92839 -.66014 .49363 1159.9 421.258)"/><rect x="140" y="2089" width="4.9" height="10.9" fill="#5c5c5c" rx="0" transform="matrix(.96699 .6165 -.38435 .7891 1528.316 346.45)"/><rect x="552" y="750" width="3.9" height="8.9" fill="#ff3f35" rx="0" transform="matrix(-.22786 .82402 -1.03555 -.6438 1607.757 953.055)"/><rect x="420" y="110" width="4.9" height="12.9" fill="#f551ff" rx="0" transform="matrix(-.3632 .99313 -.9494 -.1573 678.869 -329.181)"/><rect x="55" y="2166" width="3.9" height="3.9" fill="#adff2f" rx="0" transform="matrix(.52565 .8191 -.83894 .59511 2034.678 822.109)"/><rect x="17" y="496" width="6.9" height="14.9" fill="#5c5c5c" rx="0" transform="matrix(.1762 1.0088 -1.01604 -.14178 590.675 558.173)"/><rect x="204" y="1585" width="5.9" height="9.9" fill="#ff3f35" rx="0" transform="matrix(-.68717 .75045 -.7138 -.6757 1648.131 2479.9)"/><rect x="499" y="2509" width="3.9" height="5.9" fill="#ff3f35" rx="0" transform="matrix(.20876 .99513 -.98295 .1046 3042.38 1768.204)"/><rect x="600" y="1432" width="5.9" height="8.9" fill="#f551ff" rx="0" transform="matrix(-.5476 .52859 -.9805 -.87971 2853.513 2520.607)"/><rect x="316" y="1262" width="5.9" height="10.9" fill="#51edf9" rx="0" transform="matrix(.51504 .8121 -.85717 .59003 1241.095 232.69)"/><rect x="288" y="1567" width="5.9" height="8.9" fill="#51edf9" rx="0" transform="matrix(-.74192 .60513 -.66798 -.80303 1528.546 2687.896)"/><rect x="421" y="625" width="5.9" height="5.9" fill="#adff2f" rx="0" transform="matrix(.61604 .76604 -.7885 .64279 635.986 -100.453)"/><rect x="10" y="2497" width="5.9" height="6.9" fill="#f551ff" rx="0" transform="matrix(-.76144 .53194 -.66134 -.85129 1851.393 4623.296)"/><rect x="98" y="61" width="6.9" height="11.9" fill="#51edf9" rx="0" transform="matrix(-.80226 .38298 -.62548 -.9479 230.904 113.123)"/><rect x="418" y="2372" width="4.9" height="10.9" fill="#f551ff" rx="0" transform="matrix(.71084 .92502 -.68704 .51274 1666.892 914.275)"/><rect x="370" y="700" width="4.9" height="5.9" fill="#ff3f35" rx="0" transform="matrix(-.9574 .12278 -.34703 -1 1051.662 1405.9)"/><rect x="412" y="554" width="4.9" height="12.9" fill="#ff3f35" rx="0" transform="matrix(.90869 .94283 -.6369 .43965 576.813 42.134)"/><rect x="385" y="2522" width="6.9" height="18.9" fill="#5c5c5c" rx="0" transform="matrix(.48184 .84691 -.86785 .55 2571.393 755.598)"/><rect x="757" y="1185" width="3.9" height="5.9" fill="#5c5c5c" rx="0" transform="matrix(.54646 .7885 -.8413 .61604 1282.769 -168.8)"/><rect x="632" y="2449" width="4.9" height="4.9" fill="#adff2f" rx="0" transform="matrix(.9896 .05314 .06582 1.01404 516.105 -179.994)"/><rect x="754" y="2505" width="3.9" height="7.9" fill="#adff2f" rx="0" transform="matrix(-.1826 .83526 -1.07406 -.5634 4434.122 3383.875)"/><rect x="291" y="1047" width="3.9" height="3.9" fill="#f551ff" rx="0" transform="matrix(.5427 .86044 -.83611 .517 954.692 280.2)"/><rect x="729" y="418" width="3.9" height="5.9" fill="#adff2f" rx="0" transform="matrix(-.9117 .1472 -.3068 -1.04733 1431.966 1005.919)"/><rect x="525" y="2437" width="6.9" height="13.9" fill="#5c5c5c" rx="0" transform="matrix(1.0789 .48748 -.10498 .87944 1027.018 92.583)"/><rect x="97" y="349" width="3.9" height="4.9" fill="#adff2f" rx="0" transform="matrix(-.78932 .69731 -.61672 -.72209 387.814 527.572)"/><rect x="614" y="1492" width="6.9" height="13.9" fill="#f551ff" rx="0" transform="matrix(.87232 .486 -.48393 .87676 696.38 -72.163)"/><rect x="25" y="1439" width="6.9" height="16.9" fill="#ff3f35" rx="0" transform="matrix(.64208 .80059 -.76524 .60328 1092.53 553.438)"/><rect x="713" y="466" width="3.9" height="7.9" fill="#adff2f" rx="0" transform="matrix(.76704 .7756 -.64571 .6508 585.906 -503.64)"/><rect x="189" y="1523" width="3.9" height="8.9" fill="#f551ff" rx="0" transform="matrix(-.44189 .83106 -.90522 -.56056 1765.755 2238.336)"/><rect x="647" y="1928" width="3.9" height="10.9" fill="#f551ff" rx="0" transform="matrix(-.91696 .1472 -.26932 -1.04733 1384.405 4086.337)"/><rect x="618" y="1195" width="5.9" height="12.9" fill="#f551ff" rx="0" transform="matrix(-.66707 .88958 -.76944 -.473 1841.347 1141.106)"/><rect x="25" y="2184" width="6.9" height="10.9" fill="#ff3f35" rx="0" transform="matrix(.24837 1.0043 -1.02183 -.10556 2724.856 2395.985)"/><rect x="450" y="1614" width="5.9" height="8.9" fill="#f551ff" rx="0" transform="matrix(-.3851 .74504 -.9831 -.69476 2550.181 2493.467)"/><rect x="485" y="199" width="5.9" height="6.9" fill="#5c5c5c" rx="0" transform="matrix(1.02712 .68165 -.32628 .75705 126.946 -188.581)"/><rect x="250" y="1255" width="5.9" height="11.9" fill="#adff2f" rx="0" transform="matrix(-.82762 .31378 -.63976 -.96573 1499.2 2443.915)"/><rect x="623" y="284" width="6.9" height="7.9" fill="#5c5c5c" rx="0" transform="matrix(-.81 .42423 -.62016 -.90977 1383.725 229.35)"/><rect x="90" y="751" width="3.9" height="8.9" fill="#51edf9" rx="0" transform="matrix(-.59428 .89155 -.81884 -.45427 672.825 1013.437)"/><rect x="655" y="1967" width="6.9" height="19.9" fill="#51edf9" rx="0" transform="matrix(.98739 .83745 -.50272 .58639 1649.362 406.223)"/><rect x="731" y="2443" width="6.9" height="12.9" fill="#5c5c5c" rx="0" transform="matrix(-.15698 .90755 -1.02867 -.4232 4199.568 2781.01)"/><rect x="713" y="849" width="4.9" height="4.9" fill="#ff3f35" rx="0" transform="matrix(-.40304 1.01 -.96192 -.07063 1692.677 75.665)"/><rect x="763" y="516" width="5.9" height="15.9" fill="#ff3f35" rx="0" transform="matrix(-.30926 .93415 -.95178 -.35859 1511.126 23.067)"/><rect x="412" y="1290" width="6.9" height="16.9" fill="#ff3f35" rx="0" transform="matrix(.978 .7356 -.38143 .7356 703.631 156.829)"/><rect x="180" y="2207" width="4.9" height="9.9" fill="#5c5c5c" rx="0" transform="matrix(-1.01805 -.10874 -.48996 -1.0346 2144.21 4572.591)"/><rect x="102" y="2178" width="6.9" height="8.9" fill="#5c5c5c" rx="0" transform="matrix(.62576 .7718 -.7706 .64761 1949.291 674.73)"/><rect x="152" y="1185" width="3.9" height="5.9" fill="#f551ff" rx="0" transform="matrix(.26136 .99255 -.97542 .12187 1439.417 890.373)"/><rect x="103" y="1235" width="3.9" height="3.9" fill="#51edf9" rx="0" transform="matrix(-.22366 .95419 -.9666 -.3473 1258.271 1584.902)"/><rect x="260" y="2238" width="3.9" height="4.9" fill="#f551ff" rx="0" transform="matrix(-.27228 .98395 -.95345 -.22716 2662.235 2454.835)"/><rect x="449" y="1876" width="3.9" height="6.9" fill="#f551ff" rx="0" transform="matrix(-1.00733 .2443 -.05318 -.97983 909.972 3547.45)"/><rect x="140" y="711" width="5.9" height="7.9" fill="#adff2f" rx="0" transform="matrix(.91085 .55304 -.4056 .8516 289.805 52.241)"/><rect x="673" y="1442" width="5.9" height="15.9" fill="#ff3f35" rx="0" transform="matrix(-.97337 .4258 -.26116 -.91311 1640.934 2403.11)"/><rect x="300" y="762" width="3.9" height="6.9" fill="#f551ff" rx="0" transform="matrix(-.59109 .88632 -.81397 -.47126 1064.754 832.138)"/><rect x="555" y="2309" width="3.9" height="3.9" fill="#ff3f35" rx="0" transform="matrix(-.16386 .9657 -.98542 -.29525 3523.708 2377.124)"/><rect x="726" y="966" width="3.9" height="6.9" fill="#adff2f" rx="0" transform="matrix(.55195 1.01793 -.89497 .16122 1376.075 253.652)"/><rect x="504" y="1373" width="4.9" height="10.9" fill="#ff3f35" rx="0" transform="matrix(-.47917 .80874 -.86212 -.63186 1832.954 1956.77)"/><rect x="164" y="1162" width="4.9" height="9.9" fill="#ff3f35" rx="0" transform="matrix(.85184 .59356 -.51229 .81697 560.091 138.184)"/><rect x="633" y="1208" width="3.9" height="4.9" fill="#51edf9" rx="0" transform="matrix(.75136 .73854 -.65337 .6887 903.363 -2.888)"/><rect x="399" y="639" width="6.9" height="14.9" fill="#ff3f35" rx="0" transform="matrix(-.65509 .70883 -.75568 -.70883 1241.497 791.263)"/><rect x="104" y="2206" width="5.9" height="13.9" fill="#51edf9" rx="0" transform="matrix(1.04375 .50491 -.1727 .87454 891.876 238.675)"/><rect x="328" y="969" width="4.9" height="9.9" fill="#adff2f" rx="0" transform="matrix(-.42772 .7522 -.91637 -.7264 1401.831 1533.888)"/><rect x="664" y="664" width="5.9" height="7.9" fill="#5c5c5c" rx="0" transform="matrix(.73087 1 -.80416 .26795 912.106 .732)"/><rect x="381" y="306" width="5.9" height="8.9" fill="#ff3f35" rx="0" transform="matrix(.22366 .96573 -.96282 .31378 618.218 -225.456)"/><rect x="95" y="618" width="4.9" height="8.9" fill="#f551ff" rx="0" transform="matrix(-.59757 .4884 -.92367 -.91853 892.785 1174.539)"/><rect x="748" y="1183" width="6.9" height="8.9" fill="#5c5c5c" rx="0" transform="matrix(1.03025 .7892 -.37154 .68604 745.635 9.519)"/><rect x="387" y="552" width="5.9" height="8.9" fill="#adff2f" rx="0" transform="matrix(-.51211 .69386 -.8521 -.7982 1051.738 864.306)"/><rect x="670" y="1851" width="3.9" height="10.9" fill="#51edf9" rx="0" transform="matrix(.21157 .92846 -.99158 .37512 2146.982 500.966)"/><rect x="64" y="2281" width="6.9" height="18.9" fill="#f551ff" rx="0" transform="matrix(-.65023 .7718 -.75007 -.64761 2069.161 3713.44)"/><rect x="11" y="1905" width="4.9" height="11.9" fill="#51edf9" rx="0" transform="matrix(.80169 .66913 -.60411 .74314 1324.285 481.838)"/><rect x="332" y="1312" width="6.9" height="17.9" fill="#adff2f" rx="0" transform="matrix(1.14003 .46093 .1679 .94505 195.866 26.964)"/><rect x="307" y="1764" width="5.9" height="13.9" fill="#5c5c5c" rx="0" transform="matrix(.82067 .51535 -.57459 .85769 1011.688 81.467)"/><rect x="47" y="304" width="3.9" height="9.9" fill="#ff3f35" rx="0" transform="matrix(-.67826 .73685 -.72465 -.68712 267.359 491.177)"/><rect x="107" y="1137" width="5.9" height="12.9" fill="#51edf9" rx="0" transform="matrix(-.48928 .92846 -.87937 -.37512 966.63 1476.06)"/><rect x="186" y="1450" width="3.9" height="10.9" fill="#5c5c5c" rx="0" transform="matrix(-.3109 1.00986 -.95756 -.10614 1590.39 1386.988)"/><rect x="236" y="1304" width="5.9" height="14.9" fill="#5c5c5c" rx="0" transform="matrix(-.97846 .07106 -.07963 -1.01624 337.748 2673.658)"/><rect x="383" y="1812" width="4.9" height="7.9" fill="#ff3f35" rx="0" transform="matrix(-.04043 .9479 -1.03863 -.38298 2553.866 2227.977)"/><rect x="423" y="1335" width="3.9" height="5.9" fill="#ff3f35" rx="0" transform="matrix(-.29717 1.00137 -.97785 -.07002 1676.73 968.925)"/><rect x="504" y="1245" width="3.9" height="10.9" fill="#5c5c5c" rx="0" transform="matrix(-.8451 .30906 -.63463 -.9512 2136.268 2292.34)"/><rect x="639" y="746" width="4.9" height="10.9" fill="#f551ff" rx="0" transform="matrix(-.57367 .59102 -.90239 -.81347 1922.34 1051.042)"/><rect x="66" y="845" width="5.9" height="8.9" fill="#5c5c5c" rx="0" transform="matrix(.61566 .95298 -.78801 .40451 695.876 458.602)"/><rect x="235" y="2355" width="5.9" height="9.9" fill="#5c5c5c" rx="0" transform="matrix(.9905 -.01772 -.31724 1.01527 383.793 -73.781)"/><rect x="613" y="2242" width="5.9" height="7.9" fill="#5c5c5c" rx="0" transform="matrix(.77044 .90128 -.6466 .54154 1636.339 674.663)"/><rect x="498" y="1536" width="6.9" height="16.9" fill="#adff2f" rx="0" transform="matrix(.24976 1.01563 -1.05153 -.27214 2332.124 1618.395)"/><rect x="207" y="834" width="6.9" height="14.9" fill="#ff3f35" rx="0" transform="matrix(-.77996 .26925 -.80317 -1.00485 1309.01 1690.665)"/><rect x="145" y="2246" width="4.9" height="6.9" fill="#5c5c5c" rx="0" transform="matrix(.26138 .92177 -.97392 .39127 2103.578 1225.671)"/><rect x="106" y="1967" width="5.9" height="12.9" fill="#ff3f35" rx="0" transform="matrix(.72918 .79973 -.70094 .60264 1831.036 691.328)"/><rect x="457" y="842" width="4.9" height="8.9" fill="#f551ff" rx="0" transform="matrix(-.68544 .5201 -.78195 -.8656 1596.892 1404.741)"/><rect x="445" y="1264" width="4.9" height="4.9" fill="#adff2f" rx="0" transform="matrix(-.0361 1.00382 -.9962 0 1564.926 856.438)"/><rect x="133" y="509" width="3.9" height="7.9" fill="#adff2f" rx="0" transform="matrix(-1.0531 -.21861 -.38011 -1.02849 621.237 1113.861)"/><rect x="642" y="761" width="5.9" height="11.9" fill="#adff2f" rx="0" transform="matrix(-.01763 1.00452 -.9911 -.25046 1383.626 483.983)"/></svg>