<svg viewBox="0 0 1430 411.95" xmlns="http://www.w3.org/2000/svg"><path fill="rgba(14,14,14,1)" d="M0 0h1430v411.95H0z"/><rect x="110" y="262" width="2.06" height="5.06" fill="#55efe8" rx="0" transform="matrix(.59634 .66424 -.81948 .76412 244.326 -28.937)"/><rect x="1103" y="28" width="2.06" height="6.06" fill="rgba(89, 88, 88, 1)" rx="0" transform="matrix(-.37437 .77456 -.96562 -.67332 1582.412 -548.33)"/><rect x="1045" y="70" width="3.06" height="5.06" fill="rgba(89, 88, 88, 1)" rx="0" transform="matrix(.03469 .99484 -1.01579 -.30415 1103.434 -646.455)"/><rect x="179" y="199" width="3.06" height="8.06" fill="#b32c6a" rx="0" transform="matrix(-.92218 .14343 -.41025 -1.02058 438.964 429.356)"/><rect x="496" y="136" width="2.06" height="6.06" fill="#b32c6a" rx="0" transform="matrix(-.99948 .17375 -.08692 -.9854 986.685 207.027)"/><rect x="205" y="255" width="2.06" height="2.06" fill="rgba(89, 88, 88, 1)" rx="0" transform="matrix(-.36125 .87682 -.93192 -.50623 587.356 172.357)"/><rect x="1330" y="35" width="2.06" height="3.06" fill="rgba(89, 88, 88, 1)" rx="0" transform="matrix(.05385 .9757 -1.01247 .22526 1300.424 -1340.15)"/><rect x="1188" y="258" width="3.06" height="3.06" fill="#b32c6a" rx="0" transform="matrix(-.6681 .74416 -.74222 -.67005 2187.226 -514.12)"/><rect x="786" y="355" width="3.06" height="3.06" fill="#55efe8" rx="0" transform="matrix(-.0349 1.00061 -.9994 0 1171.327 -458.981)"/><rect x="1364" y="186" width="3.06" height="6.06" fill="#b32c6a" rx="0" transform="matrix(.895 .34538 -.43633 .94893 225.748 -653.887)"/><rect x="413" y="196" width="2.06" height="2.06" fill="#b32c6a" rx="0" transform="matrix(-1.00192 -.08982 -.31905 -1.0267 939.27 539.738)"/><rect x="30" y="42" width="2.06" height="4.06" fill="#55efe8" rx="0" transform="matrix(-.08191 .85084 -1.12005 -.5739 99.521 50.06)"/><rect x="948" y="18" width="3.06" height="6.06" fill="#55efe8" rx="0" transform="matrix(-.58168 .69848 -.82933 -.7233 1529.862 -527.192)"/><rect x="633" y="15" width="2.06" height="4.06" fill="#b32c6a" rx="0" transform="matrix(1.02024 .10493 .1766 .99832 -1.75 -11.028)"/><rect x="367" y="53" width="2.06" height="4.06" fill="#55efe8" rx="0" transform="matrix(.43119 .98872 -.86294 .34044 230.29 -215.066)"/><rect x="78" y="395" width="3.06" height="3.06" fill="rgba(89, 88, 88, 1)" rx="0" transform="matrix(-.96914 .15797 -.21133 -.9974 315.308 768.286)"/><rect x="101" y="130" width="2.06" height="2.06" fill="#b32c6a" rx="0" transform="matrix(-.05735 .94783 -1.0353 -.32636 272.904 84.221)"/><rect x="889" y="367" width="2.06" height="2.06" fill="#55efe8" rx="0" transform="matrix(.07001 .99817 -1.00673 -.0698 1240.17 -463.604)"/><rect x="942" y="163" width="3.06" height="9.06" fill="#adff2f" rx="0" transform="matrix(-.90171 .35859 -.43969 -.93415 1878.49 18.64)"/><rect x="1206" y="109" width="3.06" height="5.06" fill="#adff2f" rx="0" transform="matrix(.07 .9824 -1.00047 .24494 1235.967 -1293.308)"/><rect x="373" y="210" width="2.06" height="3.06" fill="#b32c6a" rx="0" transform="matrix(.107 1.00244 -.99756 0 577.71 -189.568)"/><rect x="1363" y="207" width="3.06" height="5.06" fill="#b32c6a" rx="0" transform="matrix(-.85652 .73685 -.55842 -.68712 2645.124 -819.49)"/><rect x="187" y="177" width="3.06" height="6.06" fill="#adff2f" rx="0" transform="matrix(-.25718 1.00786 -.96063 -.12375 415.083 -20.946)"/><rect x="276" y="186" width="3.06" height="3.06" fill="#b32c6a" rx="0" transform="matrix(-.16835 .97758 -.98096 -.24374 538.038 -72.147)"/><rect x="703" y="107" width="3.06" height="4.06" fill="#b32c6a" rx="0" transform="matrix(1.05461 .28408 .15767 .99069 -.327 -23.466)"/><rect x="399" y="298" width="3.06" height="6.06" fill="rgba(89, 88, 88, 1)" rx="0" transform="matrix(.9056 .73135 -.52285 .682 287.238 -197.201)"/><rect x="1144" y="262" width="3.06" height="3.06" fill="#adff2f" rx="0" transform="matrix(.33544 1.05504 -.92437 .07378 970.392 -570.06)"/><rect x="1276" y="391" width="2.06" height="2.06" fill="#b32c6a" rx="0" transform="matrix(-.98094 -.25298 .01861 -1.01463 2467.707 1503.28)"/><rect x="923" y="324" width="2.06" height="3.06" fill="#55efe8" rx="0" transform="matrix(.36566 .98784 -.9544 .15646 963.24 -622.066)"/><rect x="1046" y="270" width="2.06" height="2.06" fill="#55efe8" rx="0" transform="matrix(-.99863 0 -.15758 -1.00137 2169.589 597.304)"/><rect x="1258" y="138" width="3.06" height="4.06" fill="#adff2f" rx="0" transform="rotate(-2 -1262.128 -183.597) skewX(-4)"/><rect x="459" y="256" width="2.06" height="2.06" fill="rgba(89, 88, 88, 1)" rx="0" transform="matrix(-.9718 .44384 -.2606 -.91 967.638 213.887)"/><rect x="1324" y="130" width="3.06" height="3.06" fill="#b32c6a" rx="0" transform="matrix(.74956 .96618 -.70127 .43017 465.317 -749.34)"/><rect x="890" y="219" width="2.06" height="4.06" fill="rgba(89, 88, 88, 1)" rx="0" transform="matrix(1.01853 -.1051 -.17633 1 0 0)"/><rect x="169" y="130" width="3.06" height="6.06" fill="#adff2f" rx="0" transform="matrix(.55977 1.03046 -.98021 -.01799 262.51 2.217)"/><rect x="140" y="318" width="2.06" height="3.06" fill="rgba(89, 88, 88, 1)" rx="0" transform="matrix(.29435 .89395 -.96212 .47532 396.565 19.239)"/><rect x="1173" y="261" width="3.06" height="3.06" fill="rgba(89, 88, 88, 1)" rx="0" transform="matrix(.40372 1.00737 -.96446 .07044 1036.659 -774.077)"/><rect x="597" y="64" width="3.06" height="5.06" fill="#55efe8" rx="0" transform="matrix(.2495 1.05746 -.9413 .01846 487.968 -361.529)"/><rect x="513" y="160" width="3.06" height="3.06" fill="#b32c6a" rx="0" transform="matrix(.75303 .85012 -.70576 .53121 279.466 -325.71)"/><rect x="1011" y="188" width="2.06" height="3.06" fill="rgba(89, 88, 88, 1)" rx="0" transform="matrix(.899 .62942 -.4786 .77726 229.466 -577.108)"/><rect x="1157" y="139" width="3.06" height="8.06" fill="#55efe8" rx="0" transform="matrix(-.36551 .68408 -1.05587 -.75975 1859.496 -294.577)"/><rect x="702" y="217" width="3.06" height="4.06" fill="#b32c6a" rx="0" transform="matrix(.10422 .98846 -1.03766 -.24645 913.838 -285.647)"/><rect x="290" y="289" width="2.06" height="6.06" fill="#b32c6a" rx="0" transform="matrix(.22606 1 -.98022 .08749 528.134 .913)"/><rect x="623" y="368" width="2.06" height="3.06" fill="#b32c6a" rx="0" transform="matrix(-.28234 .7435 -1.06266 -.7435 1325.026 383.07)"/><rect x="1108" y="184" width="2.06" height="4.06" fill="#b32c6a" rx="0" transform="matrix(-.37489 .8322 -.94876 -.56133 1728.503 -729.513)"/><rect x="1232" y="394" width="3.06" height="6.06" fill="#55efe8" rx="0" transform="matrix(.33497 1.01856 -.98762 -.01778 1313.307 -612.563)"/><rect x="364" y="225" width="3.06" height="8.06" fill="#adff2f" rx="0" transform="matrix(-.12163 .99133 -.97615 -.26563 606.136 11.894)"/><rect x="271" y="70" width="3.06" height="7.06" fill="#55efe8" rx="0" transform="matrix(-1.03555 -.15993 -.28546 -1.00975 606.088 249.29)"/><rect x="984" y="265" width="2.06" height="3.06" fill="#b32c6a" rx="0" transform="matrix(-1.02354 -.07014 -.38028 -1.00306 2222.028 706.497)"/><rect x="1006" y="146" width="3.06" height="4.06" fill="#b32c6a" rx="0" transform="matrix(.45003 .91311 -.8853 .4258 661.386 -711.28)"/><rect x="902" y="304" width="2.06" height="3.06" fill="#55efe8" rx="0" transform="matrix(-.891 .29688 -.45399 -.97106 1846.343 493.352)"/><rect x="1226" y="141" width="2.06" height="5.06" fill="#55efe8" rx="0" transform="matrix(-.97412 -.05473 -.31494 -1.04426 2503.78 735.705)"/><rect x="411" y="389" width="2.06" height="5.06" fill="#55efe8" rx="0" transform="matrix(-.14054 1 -.95434 -.32492 769.747 240.592)"/><rect x="872" y="293" width="2.06" height="3.06" fill="#b32c6a" rx="0" transform="matrix(1.0462 .57921 -.23234 .8272 139.888 -332.08)"/><rect x="403" y="22" width="3.06" height="7.06" fill="rgba(89, 88, 88, 1)" rx="0" transform="matrix(.75424 .9176 -.73809 .42789 137.308 -292.521)"/><rect x="1071" y="134" width="2.06" height="3.06" fill="#adff2f" rx="0" transform="matrix(-.29726 .99467 -.97411 -.10454 1502.122 -935.333)"/><rect x="452" y="151" width="4.06" height="11.06" fill="#b32c6a" rx="0" transform="matrix(-1.03798 -.16448 -.47394 -1.03852 1092.446 541.293)"/><rect x="780" y="67" width="2.06" height="4.06" fill="#55efe8" rx="0" transform="matrix(1.06046 .69476 -.30214 .74504 41.156 -373.214)"/><rect x="1334" y="289" width="2.06" height="2.06" fill="#b32c6a" rx="0" transform="matrix(.4583 .79575 -.8986 .62171 978.447 -1140.268)"/><rect x="583" y="284" width="3.06" height="3.06" fill="#55efe8" rx="0" transform="matrix(.19377 1.00306 -1.0105 -.07014 814.748 -219.324)"/><rect x="254" y="312" width="2.06" height="3.06" fill="#b32c6a" rx="0" transform="matrix(-.5716 .7718 -.81606 -.64761 644.618 351.059)"/><rect x="343" y="30" width="3.06" height="4.06" fill="#adff2f" rx="0" transform="matrix(-.99586 -.11055 -.4294 -1.05183 730.672 222.44)"/><rect x="268" y="92" width="2.06" height="5.06" fill="#55efe8" rx="0" transform="matrix(-.45914 .80914 -.9023 -.58787 493.687 -72.277)"/><rect x="1149" y="257" width="2.06" height="3.06" fill="rgba(89, 88, 88, 1)" rx="0" transform="matrix(.01669 .99756 -1.00098 .08728 1350.479 -850.989)"/><rect x="785" y="283" width="2.06" height="6.06" fill="#b32c6a" rx="0" transform="matrix(-.39502 .84329 -.9293 -.54764 1388.115 -137.565)"/><rect x="650" y="100" width="3.06" height="5.06" fill="#b32c6a" rx="0" transform="matrix(.646 .6165 -.7952 .7891 300.113 -414.193)"/><rect x="999" y="276" width="2.06" height="4.06" fill="#55efe8" rx="0" transform="matrix(.83533 .73236 -.5865 .68293 380.07 -591.816)"/><rect x="170" y="30" width="2.06" height="3.06" fill="#b32c6a" rx="0" transform="matrix(.16827 1.01185 -.98241 .03533 174.499 -169.729)"/><rect x="1363" y="291" width="3.06" height="6.06" fill="#adff2f" rx="0" transform="matrix(.3102 .97437 -.95469 .22495 1247.688 -1101.67)"/><rect x="807" y="148" width="2.06" height="6.06" fill="rgba(89, 88, 88, 1)" rx="0" transform="matrix(.96651 .29237 -.25898 .9563 71.445 -229.646)"/><rect x="106" y="64" width="2.06" height="5.06" fill="#b32c6a" rx="0" transform="matrix(.40482 1.01955 -.90945 .17977 122.545 -25.874)"/><rect x="521" y="73" width="2.06" height="4.06" fill="#55efe8" rx="0" transform="matrix(-.87343 .47012 -.48444 -.88416 1017.67 -131.405)"/><rect x="968" y="133" width="3.06" height="8.06" fill="rgba(89, 88, 88, 1)" rx="0" transform="matrix(-.96168 .15665 -.31186 -.98904 1964.388 171.493)"/><rect x="692" y="271" width="2.06" height="2.06" fill="#55efe8" rx="0" transform="matrix(.7848 .51512 -.63518 .8573 290.013 -330.269)"/><rect x="489" y="226" width="3.06" height="3.06" fill="#adff2f" rx="0" transform="matrix(.70449 .73685 -.70019 .68712 330.768 -350.485)"/><rect x="806" y="267" width="2.06" height="3.06" fill="#adff2f" rx="0" transform="matrix(-1.02972 -.15993 -.24861 -1.00975 1790.343 840.286)"/><rect x="370" y="113" width="3.06" height="6.06" fill="rgba(89, 88, 88, 1)" rx="0" transform="matrix(.4813 .87939 -.85928 .50771 300.416 -335.109)"/><rect x="475" y="380" width="3.06" height="5.06" fill="#b32c6a" rx="0" transform="matrix(.64333 .63018 -.79239 .77821 416.443 -240.435)"/><rect x="125" y="235" width="2.06" height="5.06" fill="#adff2f" rx="0" transform="matrix(-.2828 1.01108 -1.00387 .05299 361.757 77.556)"/><rect x="240" y="247" width="3.06" height="7.06" fill="#adff2f" rx="0" transform="matrix(1.0299 .12233 .21352 .99634 7.02 -7.499)"/><rect x="1350" y="28" width="2.06" height="4.06" fill="#adff2f" rx="0" transform="matrix(.9962 .24494 -.08716 .9824 7.758 -116.407)"/><rect x="61" y="365" width="3.06" height="9.06" fill="#b32c6a" rx="0" transform="matrix(-.98384 -.03597 -.37105 -1.02999 322.159 767.98)"/><rect x="773" y="171" width="3.06" height="3.06" fill="#55efe8" rx="0" transform="matrix(.99372 -.08764 .0526 1.00168 2.163 -13.82)"/><rect x="1058" y="98" width="3.06" height="5.06" fill="rgba(89, 88, 88, 1)" rx="0" transform="matrix(.39928 .974 -.92714 .24285 731.639 -1048.565)"/><rect x="707" y="68" width="3.06" height="4.06" fill="#55efe8" rx="0" transform="matrix(-.72803 .811 -.70411 -.58922 1271.514 -512.865)"/><rect x="993" y="251" width="3.06" height="8.06" fill="#55efe8" rx="0" transform="matrix(1.0266 .75374 -.3694 .70288 193.162 -425.88)"/><rect x="1190" y="390" width="3.06" height="3.06" fill="#adff2f" rx="0" transform="matrix(.48434 1.00244 -.97218 .05254 1165.768 -719.236)"/><rect x="892" y="18" width="3.06" height="6.06" fill="#55efe8" rx="0" transform="matrix(.76962 .83082 -.62368 .62607 209.283 -478.283)"/><rect x="1306" y="261" width="2.06" height="6.06" fill="rgba(89, 88, 88, 1)" rx="0" transform="matrix(.07008 1.0042 -1.012 -.23184 1513.546 -661.397)"/><rect x="150" y="303" width="2.06" height="2.06" fill="#b32c6a" rx="0" transform="matrix(.65334 .89171 -.72887 .5358 243.568 49.765)"/><rect x="1369" y="292" width="2.06" height="2.06" fill="rgba(89, 88, 88, 1)" rx="0" transform="matrix(-.97949 .29309 -.20822 -.95864 2769.526 76.602)"/><rect x="1022" y="151" width="3.06" height="8.06" fill="#b32c6a" rx="0" transform="matrix(-.9632 .42365 -.29484 -.90852 2049.272 -209.313)"/><rect x="1239" y="227" width="3.06" height="4.06" fill="#adff2f" rx="0" transform="matrix(-.6707 .64761 -.74483 -.7718 2249.79 -245.273)"/><rect x="718" y="77" width="3.06" height="5.06" fill="#55efe8" rx="0" transform="matrix(-.01787 .99924 -1.0017 .05237 801.052 -618.49)"/><rect x="131" y="261" width="2.06" height="4.06" fill="#b32c6a" rx="0" transform="matrix(-.60323 .84921 -.80062 -.53065 413.318 283.565)"/><rect x="918" y="212" width="2.06" height="4.06" fill="#55efe8" rx="0" transform="matrix(.84632 .73415 -.57292 .6846 305.235 -526.794)"/><rect x="1338" y="239" width="3.06" height="8.06" fill="#adff2f" rx="0" transform="matrix(-.41861 .86189 -.90871 -.51788 2142.853 -926.427)"/><rect x="995" y="241" width="2.06" height="3.06" fill="#adff2f" rx="0" transform="matrix(.93945 .69273 -.4002 .76936 192.993 -367.162)"/><rect x="479" y="357" width="2.06" height="5.06" fill="rgba(89, 88, 88, 1)" rx="0" transform="matrix(1.10381 .5568 -.09623 .8574 125.879 -113.984)"/><rect x="1387" y="12" width="2.06" height="6.06" fill="#55efe8" rx="0" transform="matrix(.05214 .96185 -1.05462 -.2758 1350.917 -1267.427)"/><rect x="249" y="384" width="2.06" height="2.06" fill="rgba(89, 88, 88, 1)" rx="0" transform="matrix(.56217 .75655 -.8331 .65766 410.979 -74.834)"/><rect x="720" y="157" width="3.06" height="3.06" fill="#55efe8" rx="0" transform="matrix(-.06923 .96651 -1.0161 -.25898 963.348 -522.98)"/><rect x="981" y="198" width="2.06" height="4.06" fill="#55efe8" rx="0" transform="matrix(.92788 .6821 -.47103 .73147 220.959 -633.271)"/><rect x="566" y="187" width="2.06" height="3.06" fill="#55efe8" rx="0" transform="matrix(-.91136 .30944 -.42675 -.95236 1192.257 162.9)"/><rect x="902" y="183" width="3.06" height="7.06" fill="rgba(89, 88, 88, 1)" rx="0" transform="matrix(-.08704 1.00183 -.99513 -.03498 1169.95 -775.31)"/><rect x="949" y="234" width="2.06" height="3.06" fill="rgba(89, 88, 88, 1)" rx="0" transform="matrix(-.50244 .90977 -.86489 -.42423 1574.881 -445.742)"/><rect x="1149" y="359" width="2.06" height="2.06" fill="#adff2f" rx="0" transform="matrix(-.39904 .83974 -.89016 -.63279 1865.225 -4.201)"/><rect x="198" y="272" width="3.06" height="8.06" fill="rgba(89, 88, 88, 1)" rx="0" transform="matrix(-.36566 .99163 -.95705 -.13936 489.838 106.182)"/><rect x="115" y="34" width="3.06" height="4.06" fill="#55efe8" rx="0" transform="matrix(-.98268 .59685 -.32292 -.8215 240.5 -24.47)"/><rect x="987" y="130" width="3.06" height="4.06" fill="rgba(89, 88, 88, 1)" rx="0" transform="matrix(.56148 .90374 -.83266 .44079 551.666 -715.647)"/><rect x="383" y="55" width="3.06" height="5.06" fill="#b32c6a" rx="0" transform="matrix(.84501 .4574 -.52784 .8977 90.325 -217.213)"/><rect x="211" y="359" width="2.06" height="4.06" fill="#55efe8" rx="0" transform="matrix(.93432 .7917 -.50652 .6411 282.293 2.926)"/><rect x="20" y="255" width="2.06" height="2.06" fill="rgba(89, 88, 88, 1)" rx="0" transform="matrix(-.91998 .43944 -.38937 -.90099 108.45 478.94)"/><rect x="1406" y="341" width="3.06" height="7.06" fill="#b32c6a" rx="0" transform="matrix(1.03266 .35924 -.09345 .93586 80.373 -385.123)"/><rect x="55" y="139" width="3.06" height="4.06" fill="#55efe8" rx="0" transform="matrix(.67105 1.02119 -.84881 .1985 171.726 71.518)"/><rect x="167" y="157" width="3.06" height="8.06" fill="rgba(89, 88, 88, 1)" rx="0" transform="matrix(.97778 .4098 -.24414 .9204 52.581 -35.552)"/><rect x="511" y="15" width="2.06" height="2.06" fill="#adff2f" rx="0" transform="matrix(.98275 .47126 -.27366 .88632 4.424 -284.276)"/><rect x="298" y="71" width="4.06" height="6.06" fill="rgba(89, 88, 88, 1)" rx="0" transform="matrix(1.03456 .44384 -.13191 .91 20.828 -78.981)"/><rect x="837" y="238" width="2.06" height="5.06" fill="rgba(89, 88, 88, 1)" rx="0" transform="matrix(.5461 .75045 -.84083 .6757 580.49 -668.673)"/><rect x="688" y="349" width="2.06" height="6.06" fill="rgba(89, 88, 88, 1)" rx="0" transform="matrix(-.99452 -.07083 -.10453 -1.01295 1411.082 878.92)"/><rect x="235" y="275" width="3.06" height="5.06" fill="rgba(89, 88, 88, 1)" rx="0" transform="matrix(.89828 .37552 -.43964 .92945 104.745 -52.702)"/><rect x="792" y="364" width="2.06" height="6.06" fill="#55efe8" rx="0" transform="matrix(1.0024 -.03516 -.2647 1.0069 47.705 -72.019)"/><rect x="336" y="386" width="2.06" height="2.06" fill="#adff2f" rx="0" transform="matrix(.22985 .99924 -.98872 .05237 721.991 18.22)"/><rect x="280" y="109" width="3.06" height="7.06" fill="rgba(89, 88, 88, 1)" rx="0" transform="matrix(.3945 .95996 -.9211 .29349 291.201 -215.384)"/><rect x="1037" y="337" width="2.06" height="5.06" fill="#55efe8" rx="0" transform="matrix(-.20772 .97496 -.97772 -.22509 1601.513 -632.337)"/><rect x="1319" y="123" width="2.06" height="2.06" fill="#adff2f" rx="0" transform="matrix(.90755 .3746 -.4232 .92718 168.024 -485.46)"/><rect x="1349" y="89" width="2.06" height="3.06" fill="#b32c6a" rx="0" transform="matrix(.5721 .83106 -.81739 .56056 641.974 -987.773)"/><rect x="567" y="174" width="3.06" height="8.06" fill="#55efe8" rx="0" transform="matrix(1.02747 .10478 .23223 .99695 1.395 -19.274)"/><rect x="1143" y="195" width="3.06" height="5.06" fill="#b32c6a" rx="0" transform="matrix(-.12387 1.00244 -.99107 -.05254 1434.926 -839.287)"/><rect x="1418" y="234" width="3.06" height="3.06" fill="rgba(89, 88, 88, 1)" rx="0" transform="matrix(.87698 .27907 -.52491 .97324 297.144 -614.682)"/><rect x="361" y="162" width="3.06" height="3.06" fill="#adff2f" rx="0" transform="matrix(-.72604 .60633 -.68576 -.80463 765.362 30.784)"/><rect x="57" y="59" width="2.06" height="3.06" fill="#b32c6a" rx="0" transform="matrix(.18734 1.0049 -1.00167 -.0351 125.475 -1.76)"/><rect x="485" y="165" width="2.06" height="3.06" fill="#b32c6a" rx="0" transform="matrix(-.34222 .9512 -.9401 -.30906 799.744 -235.83)"/><rect x="171" y="157" width="2.06" height="4.06" fill="#adff2f" rx="0" transform="matrix(-.6323 .6297 -.80721 -.77762 441.257 180.374)"/><rect x="997" y="382" width="3.06" height="5.06" fill="#55efe8" rx="0" transform="matrix(1.0003 .15703 -.05245 .99146 28.101 -66.158)"/><rect x="546" y="383" width="3.06" height="3.06" fill="#55efe8" rx="0" transform="matrix(-.58885 .5381 -.91606 -.86113 1360.139 517.582)"/><rect x="1052" y="314" width="3.06" height="6.06" fill="#b32c6a" rx="0" transform="matrix(.73593 .86245 -.6631 .58173 466.812 -473.914)"/><rect x="443" y="320" width="3.06" height="5.06" fill="rgba(89, 88, 88, 1)" rx="0" transform="matrix(-1.00915 .37604 -.16157 -.93073 905.376 416.665)"/><rect x="1016" y="212" width="3.06" height="5.06" fill="#adff2f" rx="0" transform="matrix(-.94859 .17581 -.30816 -.99708 2042.299 410.7)"/><rect x="584" y="222" width="3.06" height="4.06" fill="rgba(89, 88, 88, 1)" rx="0" transform="matrix(.96744 .12233 -.29508 .99634 70.05 -122.037)"/><rect x="1345" y="28" width="2.06" height="5.06" fill="#55efe8" rx="0" transform="matrix(.71548 .88183 -.66937 .57267 370.687 -736.572)"/><rect x="11" y="209" width="2.06" height="3.06" fill="#b32c6a" rx="0" transform="matrix(.43792 .87676 -.89782 .486 199.44 96.825)"/><rect x="994" y="166" width="3.06" height="6.06" fill="rgba(89, 88, 88, 1)" rx="0" transform="matrix(.06337 .95295 -1.07892 -.44437 1210.55 -381.08)"/><rect x="204" y="387" width="3.06" height="8.06" fill="#adff2f" rx="0" transform="matrix(.7067 .83018 -.72789 .55996 432.699 -9.329)"/><rect x="1257" y="260" width="2.06" height="5.06" fill="rgba(89, 88, 88, 1)" rx="0" transform="matrix(.83285 .79393 -.60886 .62028 436.167 -744.633)"/><rect x="635" y="291" width="3.06" height="3.06" fill="#b32c6a" rx="0" transform="matrix(-.99064 -.05285 .01884 -1.00844 1221.443 710.629)"/><rect x="956" y="177" width="4.06" height="6.06" fill="rgba(89, 88, 88, 1)" rx="0" transform="matrix(.84027 .69252 -.54293 .74264 254.594 -786.047)"/><rect x="358" y="369" width="3.06" height="8.06" fill="#adff2f" rx="0" transform="matrix(-.87234 .32636 -.5306 -.94783 970.85 584.12)"/><rect x="1249" y="281" width="2.06" height="3.06" fill="#adff2f" rx="0" transform="matrix(.19217 .99497 -.98146 .12217 1314.526 -1083.139)"/><rect x="430" y="294" width="2.06" height="4.06" fill="rgba(89, 88, 88, 1)" rx="0" transform="matrix(.60283 .94893 -.8344 .34538 468.318 -154.652)"/><rect x="331" y="270" width="2.06" height="4.06" fill="rgba(89, 88, 88, 1)" rx="0" transform="matrix(-.1058 .97044 -1.00408 -.24196 674.41 21.43)"/><rect x="41" y="276" width="2.06" height="4.06" fill="#b32c6a" rx="0" transform="matrix(-.35937 .99386 -.93632 -.19319 312.722 283.313)"/><rect x="50" y="336" width="2.06" height="3.06" fill="#55efe8" rx="0" transform="matrix(-.67035 .71293 -.7085 -.73826 262.783 562.116)"/><rect x="768" y="73" width="2.06" height="5.06" fill="#adff2f" rx="0" transform="matrix(-.0016 1.00554 -.99426 -.14132 826.985 -822.69)"/><rect x="1261" y="178" width="3.06" height="8.06" fill="#adff2f" rx="0" transform="matrix(-.60892 .88308 -.80863 -.46954 2156.017 -869.454)"/><rect x="1023" y="39" width="3.06" height="3.06" fill="#55efe8" rx="0" transform="matrix(-.15544 .99405 -.98414 -.1397 1220.236 -1061.877)"/><rect x="1198" y="39" width="3.06" height="7.06" fill="#55efe8" rx="0" transform="matrix(-.20859 .9927 -.98174 -.12189 1489.983 -1163.994)"/><rect x="507" y="10" width="2.06" height="2.06" fill="rgba(89, 88, 88, 1)" rx="0" transform="matrix(-.77705 .56966 -.6034 -.84455 895.972 -170.308)"/><rect x="465" y="206" width="3.06" height="6.06" fill="#b32c6a" rx="0" transform="matrix(1.00616 .59114 -.25471 .84423 90.315 -126.903)"/><rect x="1009" y="24" width="2.06" height="2.06" fill="#55efe8" rx="0" transform="matrix(.56028 .96157 -.86867 .29398 489.003 -847.387)"/><rect x="1083" y="210" width="2.06" height="2.06" fill="#b32c6a" rx="0" transform="matrix(-.95569 -.25046 .15967 -1.00452 1997.899 984.981)"/><rect x="490" y="63" width="3.06" height="5.06" fill="#adff2f" rx="0" transform="matrix(-.99422 -.09114 -.3916 -1.04171 1043.931 328.866)"/><rect x="862" y="295" width="3.06" height="5.06" fill="rgba(89, 88, 88, 1)" rx="0" transform="matrix(.07141 1.00786 -.98344 .12375 1112.3 -761.868)"/><rect x="1243" y="24" width="2.06" height="5.06" fill="#b32c6a" rx="0" transform="matrix(.3032 1.01112 -1.02623 -.12415 956.027 -986.23)"/><rect x="1291" y="45" width="2.06" height="6.06" fill="#b32c6a" rx="0" transform="matrix(.2005 .99677 -.96427 .19375 1035.608 -1021.313)"/><rect x="995" y="228" width="2.06" height="2.06" fill="#55efe8" rx="0" transform="matrix(-.04024 .94098 -1.04807 -.34249 1351.502 -577.576)"/><rect x="1397" y="344" width="2.06" height="3.06" fill="#55efe8" rx="0" transform="matrix(.56132 1.02119 -.87014 .1985 992.397 -749.827)"/><rect x="422" y="48" width="2.06" height="5.06" fill="#55efe8" rx="0" transform="matrix(.91518 .57892 -.37055 .85828 46.017 -124.389)"/><rect x="173" y="160" width="2.06" height="4.06" fill="#adff2f" rx="0" transform="matrix(.74262 .97756 -.75266 .3558 200.313 -15.844)"/><rect x="24" y="48" width="3.06" height="3.06" fill="#55efe8" rx="0" transform="matrix(-.36474 .7283 -1.02083 -.70332 100.765 69.815)"/><rect x="1411" y="137" width="2.06" height="3.06" fill="#55efe8" rx="0" transform="matrix(.96187 .68293 -.43279 .73236 174.733 -853.246)"/><rect x="1277" y="104" width="3.06" height="7.06" fill="rgba(89, 88, 88, 1)" rx="0" transform="matrix(-.9539 .05418 -.25483 -1.03386 2501.928 492.008)"/><rect x="20" y="110" width="3.06" height="4.06" fill="#55efe8" rx="0" transform="matrix(-.26894 .85084 -.9939 -.5739 150.964 162.976)"/><rect x="782" y="115" width="3.06" height="4.06" fill="#55efe8" rx="0" transform="matrix(.92718 .4232 -.3746 .90755 100.894 -279.706)"/><rect x="166" y="75" width="2.06" height="2.06" fill="rgba(89, 88, 88, 1)" rx="0" transform="matrix(-.95861 .0719 -.20096 -1.0281 330.058 183.834)"/><rect x="551" y="204" width="3.06" height="8.06" fill="#b32c6a" rx="0" transform="matrix(-.75322 .43206 -.6992 -.92656 1148.372 279.499)"/><rect x="547" y="286" width="2.06" height="4.06" fill="#55efe8" rx="0" transform="matrix(-.1584 1.00293 -1.02217 .15885 902.357 -403.988)"/><rect x="1053" y="221" width="3.06" height="5.06" fill="rgba(89, 88, 88, 1)" rx="0" transform="matrix(-.00329 1 -.99948 -.15838 1298.685 -962.617)"/><rect x="831" y="332" width="2.06" height="4.06" fill="#b32c6a" rx="0" transform="matrix(-.36347 .73044 -1.01804 -.70537 1603.32 108.61)"/><rect x="639" y="71" width="3.06" height="4.06" fill="rgba(89, 88, 88, 1)" rx="0" transform="matrix(-.26354 .81213 -1.02543 -.6345 925.256 -241.126)"/><rect x="502" y="44" width="3.06" height="5.06" fill="#55efe8" rx="0" transform="matrix(1.01375 -.15885 -.1052 1.00293 1.67 -8.937)"/><rect x="745" y="117" width="2.06" height="4.06" fill="#b32c6a" rx="0" transform="matrix(-.91275 .07378 -.50162 -1.05504 1526.187 446.451)"/><rect x="217" y="345" width="2.06" height="3.06" fill="#b32c6a" rx="0" transform="matrix(-.6886 .73685 -.715 -.68712 649.544 397.212)"/><rect x="182" y="386" width="2.06" height="5.06" fill="rgba(89, 88, 88, 1)" rx="0" transform="matrix(.71959 .54764 -.71795 .84329 291.456 -58.585)"/><rect x="538" y="81" width="3.06" height="3.06" fill="#b32c6a" rx="0" transform="matrix(1.01205 .53284 -.25712 .85272 44.313 -218.62)"/><rect x="452" y="51" width="3.06" height="6.06" fill="#b32c6a" rx="0" transform="matrix(-.75087 .7524 -.65298 -.67747 828.731 -322.438)"/><rect x="1072" y="389" width="3.06" height="3.06" fill="#55efe8" rx="0" transform="matrix(-.51308 .70808 -.8992 -.70808 2084.107 -149.348)"/><rect x="682" y="48" width="4.06" height="11.06" fill="#55efe8" rx="0" transform="matrix(.37105 1.02451 -.8904 .23653 439.124 -437.674)"/><rect x="158" y="106" width="3.06" height="5.06" fill="#55efe8" rx="0" transform="matrix(-.40107 .6438 -1.03995 -.82402 378.527 144.03)"/><rect x="723" y="121" width="2.06" height="5.06" fill="#adff2f" rx="0" transform="matrix(.01745 1.002 -.99985 -.10531 834.905 -500.032)"/><rect x="269" y="133" width="3.06" height="4.06" fill="#b32c6a" rx="0" transform="matrix(.85525 .7506 -.53475 .69994 118.263 -100.083)"/><rect x="431" y="68" width="3.06" height="6.06" fill="#55efe8" rx="0" transform="matrix(-.0216 1.00967 -.9908 .01762 489.005 -306.148)"/><rect x="1232" y="214" width="3.06" height="5.06" fill="rgba(89, 88, 88, 1)" rx="0" transform="matrix(.95611 .52285 -.25658 .9056 88.962 -247.377)"/><rect x="520" y="211" width="3.06" height="7.06" fill="rgba(89, 88, 88, 1)" rx="0" transform="matrix(.99536 -.01748 .19625 1.00122 3.538 -18.48)"/><rect x="922" y="141" width="3.06" height="4.06" fill="rgba(89, 88, 88, 1)" rx="0" transform="matrix(.23147 .98526 -1.07267 -.24565 956.7 -568.912)"/><rect x="637" y="231" width="3.06" height="5.06" fill="#55efe8" rx="0" transform="matrix(1.08184 .80846 -.36086 .65468 167.385 -252.491)"/><rect x="44" y="328" width="3.06" height="3.06" fill="#adff2f" rx="0" transform="matrix(-.38613 .84162 -.90765 -.61147 344.253 505.765)"/><rect x="941" y="264" width="2.06" height="3.06" fill="#55efe8" rx="0" transform="matrix(.33462 .84497 -.96617 .54873 864.952 -791.827)"/><rect x="902" y="166" width="2.06" height="4.06" fill="#55efe8" rx="0" transform="matrix(.54303 .7098 -.8658 .7098 545.626 -671.222)"/><rect x="828" y="262" width="2.06" height="2.06" fill="rgba(89, 88, 88, 1)" rx="0" transform="matrix(.25438 1.0032 -.98792 .03503 936.239 -650.405)"/><rect x="1057" y="200" width="4.06" height="10.06" fill="#adff2f" rx="0" transform="matrix(.85995 .8768 -.56046 .59141 303.066 -480.14)"/><rect x="670" y="371" width="3.06" height="8.06" fill="#55efe8" rx="0" transform="matrix(.8747 .7945 -.55032 .64338 354.105 -257.054)"/><rect x="1148" y="165" width="3.06" height="8.06" fill="#55efe8" rx="0" transform="matrix(-.5463 .75655 -.8469 -.65766 1939.507 -669.868)"/><rect x="835" y="20" width="3.06" height="5.06" fill="#adff2f" rx="0" transform="matrix(-.83756 .35837 -.60852 -.93358 1556.917 -256.222)"/><rect x="448" y="227" width="2.06" height="3.06" fill="rgba(89, 88, 88, 1)" rx="0" transform="matrix(-.64089 .7098 -.76795 -.7098 945.674 32.732)"/><rect x="1403" y="96" width="2.06" height="2.06" fill="#55efe8" rx="0" transform="matrix(.32112 1.02058 -.9347 .14343 1020.43 -999.754)"/><rect x="1371" y="225" width="2.06" height="2.06" fill="#55efe8" rx="0" transform="matrix(-.65615 .58242 -.77988 -.83179 2489.506 -143.14)"/><rect x="1324" y="15" width="2.06" height="3.06" fill="rgba(89, 88, 88, 1)" rx="0" transform="matrix(-.80768 .8191 -.63404 -.59511 2429.449 -1268.831)"/><rect x="1074" y="36" width="2.06" height="3.06" fill="#55efe8" rx="0" transform="matrix(.93658 .2255 -.37783 .97675 85.656 -316.72)"/><rect x="1281" y="258" width="3.06" height="8.06" fill="#b32c6a" rx="0" transform="matrix(-.74349 .64289 -.66943 -.76616 2416.451 -339.346)"/><rect x="250" y="306" width="2.06" height="3.06" fill="#55efe8" rx="0" transform="matrix(.2369 .97983 -.96152 .2443 439.078 21.714)"/><rect x="443" y="29" width="3.06" height="5.06" fill="#b32c6a" rx="0" transform="matrix(-.66027 .50623 -.83175 -.87682 787.8 -95.453)"/><rect x="516" y="363" width="2.06" height="5.06" fill="#55efe8" rx="0" transform="matrix(.99597 .23087 -.01746 1 0 0)"/><rect x="1067" y="203" width="2.06" height="4.06" fill="rgba(89, 88, 88, 1)" rx="0" transform="matrix(-.39828 .98721 -.94273 -.17407 1666.048 -888.337)"/><rect x="1006" y="205" width="3.06" height="6.06" fill="#adff2f" rx="0" transform="matrix(.6584 .80914 -.75753 .58787 517.542 -711.912)"/><rect x="625" y="355" width="3.06" height="5.06" fill="#b32c6a" rx="0" transform="matrix(-.5052 .7524 -.87418 -.67747 1279.539 227.572)"/><rect x="1109" y="189" width="2.06" height="5.06" fill="#b32c6a" rx="0" transform="matrix(.52754 1.03634 -1.01109 -.09067 883.754 -623.178)"/><rect x="480" y="385" width="2.06" height="2.06" fill="#adff2f" rx="0" transform="matrix(1.01698 .473 -.20151 .88958 148.102 -125.837)"/><rect x="803" y="173" width="3.06" height="4.06" fill="rgba(89, 88, 88, 1)" rx="0" transform="matrix(-.84436 .47826 -.5029 -.89947 1525.29 104.076)"/><rect x="728" y="368" width="2.06" height="3.06" fill="#55efe8" rx="0" transform="matrix(.0522 1.00076 -.99742 .03495 1045.305 -334.763)"/><rect x="689" y="311" width="3.06" height="6.06" fill="#adff2f" rx="0" transform="matrix(-.68064 .60328 -.75436 -.80059 1441.907 197.138)"/><rect x="1271" y="101" width="3.06" height="9.06" fill="rgba(89, 88, 88, 1)" rx="0" transform="matrix(.30573 1 -.98932 .03492 1006.56 -1215.123)"/><rect x="375" y="208" width="3.06" height="6.06" fill="#55efe8" rx="0" transform="matrix(-.94758 .48666 -.34534 -.87796 793.745 180.121)"/><rect x="962" y="328" width="3.06" height="4.06" fill="rgba(89, 88, 88, 1)" rx="0" transform="matrix(.89474 .35886 -.45573 .93486 237.178 -374.77)"/><rect x="502" y="326" width="3.06" height="8.06" fill="#b32c6a" rx="0" transform="matrix(-.34852 .84691 -.95443 -.55 1029.076 155.864)"/><rect x="1282" y="129" width="2.06" height="5.06" fill="#adff2f" rx="0" transform="matrix(-.10617 .94505 -1.00636 -.46093 1570.769 -603.487)"/><rect x="643" y="170" width="2.06" height="2.06" fill="#55efe8" rx="0" transform="matrix(-.46521 .6687 -.94104 -.79692 1154.578 61.341)"/><rect x="318" y="84" width="3.06" height="4.06" fill="rgba(89, 88, 88, 1)" rx="0" transform="matrix(-.71935 .70721 -.69464 -.70721 605.946 -73.527)"/><rect x="1368" y="59" width="2.06" height="4.06" fill="#55efe8" rx="0" transform="matrix(-1.06163 -.20063 -.47726 -1.03214 3025.738 843.513)"/><rect x="754" y="18" width="2.06" height="5.06" fill="rgba(89, 88, 88, 1)" rx="0" transform="matrix(1.16972 .65114 -.0386 .83342 -30.767 -228.23)"/><rect x="1380" y="140" width="4.06" height="11.06" fill="#b32c6a" rx="0" transform="matrix(.28126 .99197 -.93797 .24733 1060.248 -967.64)"/><rect x="1189" y="240" width="2.06" height="3.06" fill="#b32c6a" rx="0" transform="matrix(-1.04488 -.19507 -.24914 -1.00356 2607.807 969.009)"/><rect x="234" y="305" width="3.06" height="4.06" fill="#55efe8" rx="0" transform="matrix(-.40426 .90223 -.9112 -.44005 645.678 209.03)"/><rect x="608" y="349" width="3.06" height="8.06" fill="#b32c6a" rx="0" transform="matrix(-1.08776 -.29152 -.36316 -1.01665 1572.853 1099.506)"/><rect x="842" y="277" width="2.06" height="3.06" fill="#b32c6a" rx="0" transform="matrix(-.88611 .3908 -.47137 -.92065 1749.066 190.794)"/><rect x="1052" y="400" width="3.06" height="7.06" fill="#adff2f" rx="0" transform="matrix(.54873 .76604 -.84497 .64279 766.85 -662.905)"/><rect x="916" y="254" width="3.06" height="5.06" fill="#55efe8" rx="0" transform="matrix(-.47889 .7731 -.86231 -.6961 1550.9 -11.14)"/><rect x="1210" y="109" width="2.06" height="3.06" fill="#b32c6a" rx="0" transform="matrix(-.9785 .01772 -.36983 -1.01527 2494.044 414.824)"/><rect x="101" y="329" width="2.06" height="4.06" fill="rgba(89, 88, 88, 1)" rx="0" transform="matrix(.50039 .83918 -.86668 .54497 332.156 61.444)"/><rect x="1344" y="352" width="2.06" height="3.06" fill="rgba(89, 88, 88, 1)" rx="0" transform="matrix(-.99006 .06977 -.17484 -.99772 2779.031 588.936)"/><rect x="691" y="360" width="2.06" height="4.06" fill="rgba(89, 88, 88, 1)" rx="0" transform="matrix(.25725 .94149 -.95821 .38039 873.483 -549.242)"/><rect x="762" y="339" width="3.06" height="7.06" fill="#55efe8" rx="0" transform="matrix(.91668 .4027 -.32371 .94868 80.532 -99.522)"/><rect x="276" y="314" width="2.06" height="5.06" fill="#55efe8" rx="0" transform="matrix(-.96869 -.09218 -.22353 -1.0536 608.95 770.95)"/><rect x="535" y="372" width="2.06" height="5.06" fill="#55efe8" rx="0" transform="matrix(-.46756 .8322 -.88626 -.56133 1182.27 91.781)"/><rect x="874" y="92" width="2.06" height="3.06" fill="#55efe8" rx="0" transform="matrix(.80604 1.03051 -.7843 .23791 348.866 -529.156)"/><rect x="750" y="78" width="3.06" height="3.06" fill="rgba(89, 88, 88, 1)" rx="0" transform="matrix(-.92755 .29457 -.36093 -.96349 1474.838 -157.497)"/><rect x="961" y="293" width="3.06" height="5.06" fill="#b32c6a" rx="0" transform="matrix(.84577 .34333 -.58894 .94328 285.24 -397.91)"/><rect x="413" y="103" width="2.06" height="5.06" fill="#adff2f" rx="0" transform="matrix(-.94672 .12415 -.34433 -1.01112 848.833 241.31)"/><rect x="17" y="25" width="3.06" height="9.06" fill="#adff2f" rx="0" transform="matrix(-1.01306 -.10648 -.24762 -1.01314 49.862 65.023)"/><rect x="1080" y="238" width="3.06" height="5.06" fill="#55efe8" rx="0" transform="matrix(-.74005 .55928 -.69084 -.82916 2087.173 -183.786)"/></svg>